<svg width="100%" height="100%" viewBox="0 0 94 58" version="1.1"
  xmlns="http://www.w3.org/2000/svg"
  xmlns:xlink="http://www.w3.org/1999/xlink" xml:space="preserve"
  xmlns:serif="http://www.serif.com/" style="fill-rule:evenodd;clip-rule:evenodd;stroke-linejoin:round;stroke-miterlimit:2;">
  <g>
    <path d="M43.373,0.205c-8.679,0 -15.715,7.05 -15.715,15.74c-0.005,3.449 1.127,6.805 3.22,9.547l13.063,-17.192l-2.803,0c-1.489,0 -2.887,0.102 -3.896,0.3c-0.611,0.12 -1.155,0.34 -1.598,0.654c-0.527,0.37 -1.175,1.143 -1.602,1.905c-0.047,0.087 -0.122,0.224 -0.209,0.405l-0.769,-0.17l1.281,-4.937l16.365,0l-13.003,17.411c0.621,-0.065 1.244,-0.096 1.868,-0.093c0.526,0 1.325,0.033 2.404,0.098l2.308,0.137c0.833,0.05 1.533,0.075 2.065,0.075c1.195,0 1.971,-0.09 2.739,-0.328c0.599,-0.184 1.166,-0.458 1.682,-0.814c0.913,-0.629 1.8,-1.644 2.331,-2.664c0.052,-0.097 0.14,-0.256 0.234,-0.466l0.693,0.18c-0.224,0.861 -0.346,1.19 -0.687,1.963c-0.7,1.563 -1.489,2.61 -2.573,3.413c-1.114,0.829 -2.35,1.233 -3.805,1.255l-0.222,0.003c-1.083,0 -1.919,-0.09 -4.501,-0.488c-2.631,-0.405 -3.97,-0.542 -5.292,-0.542c-0.885,0 -1.71,0.065 -2.562,0.206c-1.126,0.184 -1.572,0.315 -2.599,0.78c2.873,3.14 7,5.105 11.583,5.105c8.68,0 15.717,-7.045 15.717,-15.743c0,-8.69 -7.037,-15.74 -15.717,-15.74" style="fill:#0049ab;"/>
    <path d="M91.189,40.678c-1.154,-0.025 -2.09,-0.981 -2.09,-2.136c0,-1.154 0.936,-2.11 2.09,-2.135c1.175,0 2.13,0.959 2.13,2.137c0.001,1.169 -0.961,2.132 -2.13,2.134Zm0,-4.542c-1.319,0.003 -2.403,1.089 -2.404,2.408c0.002,1.319 1.085,2.403 2.404,2.406c1.32,0 2.407,-1.087 2.407,-2.407c0,-1.32 -1.087,-2.407 -2.407,-2.407Zm-0.57,2.245l0,-1.046l0.297,0c0.397,0 0.74,0.029 0.74,0.512c0,0.405 -0.39,0.534 -0.73,0.534l-0.307,0Zm0.675,0.15l0,-0.01c0.362,-0.048 0.651,-0.299 0.651,-0.674c0,-0.542 -0.34,-0.767 -0.86,-0.767l-0.755,0l0,2.939l0.288,0l0,-1.383l0.24,0c0.28,0 0.473,0.012 0.64,0.39l0.424,0.993l0.321,0l-0.5,-1.134c-0.09,-0.202 -0.215,-0.327 -0.45,-0.354l0.001,0Zm-63.72,4.267c0.098,0.158 0.174,0.328 0.224,0.505c0.101,0.362 0.13,0.72 0.13,1.557l0,5.66c0,1.213 -0.032,1.926 -0.125,2.518c-0.06,0.395 -0.193,0.767 -0.387,1.092c-0.366,0.607 -1.044,1.07 -1.85,1.272c-0.323,0.083 -0.685,0.12 -1.065,0.12c-1.287,0 -2.399,-0.474 -2.933,-1.259c-0.415,-0.606 -0.533,-1.182 -0.552,-2.714l-0.014,-1.222l0,-4.487c0,-0.866 0.007,-1.282 0.04,-1.727c0.017,-0.264 0.057,-0.492 0.11,-0.68c0.106,-0.343 0.362,-0.799 0.608,-1.08c0.027,-0.03 0.069,-0.07 0.122,-0.127l-4.887,0c0.301,0.242 0.4,0.357 0.545,0.603c0.098,0.16 0.169,0.333 0.213,0.514c0.06,0.227 0.096,0.455 0.102,0.687c0.003,0.144 0.006,0.452 0.01,0.922l0,5.122c0,1.576 0.015,1.98 0.062,2.617c0.09,1.081 0.425,1.949 1.053,2.737c1.143,1.417 2.967,2.162 5.303,2.162c1.118,0 2.194,-0.17 3.021,-0.47c0.864,-0.323 1.667,-0.85 2.234,-1.48c0.699,-0.768 1.1,-1.72 1.22,-2.887c0.069,-0.68 0.101,-1.487 0.101,-2.658l0,-4.275l-0.007,-0.845l0,-0.17c0,-0.644 0.028,-1.016 0.119,-1.357c0.056,-0.216 0.143,-0.42 0.26,-0.603c0.162,-0.257 0.27,-0.373 0.588,-0.618l-4.792,0c0.29,0.224 0.392,0.332 0.547,0.572l0,-0.001Zm13.518,5.974c-0.538,0.311 -1.084,0.489 -1.895,0.6c-0.259,0.044 -0.521,0.069 -0.784,0.074c-0.077,0 -0.13,-0.005 -0.245,-0.012l0,-5.506c0.19,-0.007 0.27,-0.007 0.393,-0.007c0.74,0 1.457,0.087 2.026,0.246c0.379,0.108 0.725,0.292 1.014,0.535c0.514,0.43 0.78,1.056 0.78,1.833c0,0.672 -0.205,1.247 -0.586,1.677c-0.205,0.221 -0.442,0.41 -0.703,0.56Zm5.737,7.288c-0.53,-0.495 -1,-0.972 -1.702,-1.728c-0.374,-0.394 -0.739,-0.798 -1.093,-1.21l-2.336,-2.716c0.289,-0.086 0.403,-0.126 0.668,-0.227c0.75,-0.3 1.325,-0.626 1.847,-1.063c0.596,-0.495 0.97,-1.026 1.19,-1.699c0.121,-0.372 0.182,-0.756 0.182,-1.143c0,-0.914 -0.343,-1.742 -1.018,-2.443c-0.618,-0.636 -1.481,-1.11 -2.44,-1.334c-0.676,-0.16 -1.377,-0.228 -2.572,-0.26c-0.448,-0.011 -0.91,-0.019 -1.392,-0.019l-3.881,0c0.266,0.242 0.365,0.348 0.507,0.564c0.116,0.171 0.203,0.354 0.26,0.54c0.106,0.335 0.15,0.791 0.15,1.582l0,9.76c0,0.706 -0.048,1.115 -0.171,1.44c-0.066,0.168 -0.155,0.326 -0.264,0.47c-0.133,0.177 -0.222,0.267 -0.497,0.517l4.778,0c-0.153,-0.147 -0.292,-0.308 -0.415,-0.481c-0.106,-0.14 -0.192,-0.293 -0.257,-0.456c-0.135,-0.328 -0.183,-0.683 -0.198,-1.373c-0.005,-0.249 -0.007,-0.499 -0.007,-0.748l0,-3.34l2.786,3.3c0.132,0.155 0.343,0.397 0.629,0.723c0.32,0.36 0.563,0.629 0.728,0.794c0.54,0.55 1.054,0.951 1.556,1.223c0.432,0.232 0.838,0.325 1.49,0.35c0.243,0.008 0.503,0.008 0.78,0.008l1.888,0c-0.187,-0.142 -0.37,-0.291 -0.547,-0.445c-0.22,-0.191 -0.436,-0.387 -0.649,-0.586Zm38.4,-11.094c0,-0.655 0.057,-1.16 0.171,-1.576c0.05,-0.192 0.131,-0.376 0.236,-0.546c0.16,-0.257 0.274,-0.376 0.595,-0.626l-4.905,0c0.282,0.236 0.38,0.344 0.55,0.608c0.11,0.173 0.191,0.346 0.252,0.517c0.115,0.35 0.16,0.784 0.16,1.561l0,3.62l-6.741,0l0,-2.716c0,-0.824 0.013,-1.362 0.044,-1.76c0.016,-0.246 0.053,-0.463 0.117,-0.651c0.17,-0.449 0.441,-0.852 0.792,-1.179l-4.818,0c0.292,0.297 0.366,0.384 0.5,0.575c0.1,0.152 0.19,0.322 0.254,0.503c0.134,0.376 0.155,0.582 0.166,1.572l0.013,0.944l0,8.14c0,0.829 -0.015,1.194 -0.06,1.566c-0.026,0.202 -0.076,0.4 -0.149,0.59c-0.122,0.322 -0.32,0.61 -0.578,0.838c-0.034,0.032 -0.092,0.08 -0.168,0.145l4.757,0c-0.152,-0.146 -0.286,-0.31 -0.398,-0.488c-0.094,-0.148 -0.174,-0.304 -0.239,-0.467c-0.157,-0.39 -0.204,-0.668 -0.22,-1.301c-0.005,-0.315 -0.013,-0.611 -0.013,-0.89l0,-3.6l6.741,0l0,3.626c0,0.802 -0.014,1.095 -0.067,1.518c-0.028,0.218 -0.082,0.431 -0.16,0.636c-0.121,0.297 -0.306,0.563 -0.542,0.78l-0.21,0.186l4.805,0c-0.15,-0.138 -0.287,-0.291 -0.408,-0.456c-0.11,-0.154 -0.202,-0.32 -0.276,-0.495c-0.147,-0.344 -0.186,-0.607 -0.2,-1.342c-0.004,-0.432 -0.01,-0.69 -0.01,-0.769l0.01,-8.181l0,-0.882l-0.001,0Zm-17.69,9.974c-0.91,0.38 -1.733,0.553 -2.622,0.553c-1.558,0 -2.89,-0.55 -3.871,-1.602c-0.975,-1.04 -1.504,-2.483 -1.504,-4.117c0,-1.558 0.49,-3.004 1.36,-4.016c0.375,-0.438 0.836,-0.81 1.364,-1.1c0.848,-0.473 1.833,-0.716 2.903,-0.716c0.923,0 1.81,0.178 2.702,0.54c0.556,0.22 0.758,0.332 1.238,0.672l0,-2.801c-0.3,-0.099 -0.606,-0.18 -0.916,-0.243c-0.87,-0.181 -1.758,-0.27 -2.647,-0.264c-1.613,0 -3.006,0.257 -4.28,0.788c-0.742,0.307 -1.438,0.716 -2.067,1.215c-1.855,1.479 -2.859,3.618 -2.859,6.08c0,2.39 0.97,4.458 2.746,5.846c1.466,1.142 3.347,1.72 5.616,1.72c1.412,0 2.73,-0.21 4.216,-0.668c0.054,-0.018 0.137,-0.043 0.246,-0.076l0,-2.704c-0.364,0.239 -0.485,0.319 -0.705,0.44c-0.296,0.171 -0.604,0.323 -0.92,0.453Zm-14.423,-9.964c0.007,-0.993 0.037,-1.268 0.158,-1.673c0.055,-0.16 0.127,-0.318 0.213,-0.466c0.159,-0.254 0.266,-0.369 0.569,-0.619l-4.827,0c0.317,0.272 0.416,0.376 0.56,0.59c0.1,0.152 0.183,0.314 0.234,0.484c0.11,0.361 0.148,0.716 0.155,1.602c0,0.451 0.003,0.751 0.003,0.896l0,8.904c0,0.52 -0.094,1.077 -0.238,1.434c-0.064,0.157 -0.14,0.301 -0.238,0.44c-0.112,0.165 -0.195,0.255 -0.46,0.523l4.77,0c-0.186,-0.145 -0.343,-0.323 -0.466,-0.524c-0.093,-0.144 -0.17,-0.296 -0.231,-0.456c-0.127,-0.336 -0.206,-0.835 -0.206,-1.305l0,-8.958l0.004,-0.872Zm-42.023,10.034c-0.668,0.116 -1.417,0.18 -2.36,0.206c-0.315,0.006 -0.714,0.01 -1.202,0.01l-2.303,0l9.114,-13.007l-11.825,0l-1.45,3.174c0.356,-0.193 0.723,-0.364 1.1,-0.512c0.688,-0.267 1.401,-0.465 2.128,-0.59c0.616,-0.112 1.19,-0.16 2.116,-0.188c0.416,-0.007 0.802,-0.01 1.166,-0.01l1.751,0l-9.197,12.997l13,0l1.5,-3.395c-0.521,0.296 -0.711,0.398 -1.105,0.579c-0.756,0.332 -1.58,0.585 -2.433,0.734l0,0.002Z" style="fill:#006;"/>
  </g>
</svg>